<svg xmlns="http://www.w3.org/2000/svg" version="1.1" xmlns:xlink="http://www.w3.org/1999/xlink" xmlns:svgjs="http://svgjs.com/svgjs" width="30" height="30" preserveAspectRatio="none" viewBox="0 0 30 30"><g mask="url(&quot;#SvgjsMask1040&quot;)" fill="none"><rect width="30" height="30" x="0" y="0" fill="#0e2a47"></rect><use xlink:href="#SvgjsPath1041" x="30" y="30" stroke="#1c538e"></use></g><defs><mask id="SvgjsMask1040"><rect width="30" height="30" fill="#ffffff"></rect></mask><path d="M-1 0 a1 1 0 1 0 2 0 a1 1 0 1 0 -2 0z"></path><path d="M-3 0 a3 3 0 1 0 6 0 a3 3 0 1 0 -6 0z"></path><path d="M-5 0 a5 5 0 1 0 10 0 a5 5 0 1 0 -10 0z" id="SvgjsPath1041"></path><path d="M2 -2 L-2 2z"></path><path d="M6 -6 L-6 6z"></path><path d="M30 -30 L-30 30z"></path></defs></svg>