<svg xmlns="http://www.w3.org/2000/svg" version="1.1" xmlns:xlink="http://www.w3.org/1999/xlink" xmlns:svgjs="http://svgjs.com/svgjs" width="1175" height="560" preserveAspectRatio="none" viewBox="0 0 1175 560"><g mask="url(&quot;#SvgjsMask1396&quot;)" fill="none"><rect width="1175" height="560" x="0" y="0" fill="#0e2a47"></rect><path d="M -62.87023147606962,152 C -29.27,203.6 37.93,393 105.12976852393038,410 C 172.33,427 205.93,258.6 273.12976852393035,237 C 340.33,215.4 373.93,333.6 441.12976852393035,302 C 508.33,270.4 541.93,35.4 609.1297685239304,79 C 676.33,122.6 709.93,509.4 777.1297685239304,520 C 844.33,530.6 877.93,145.4 945.1297685239304,132 C 1012.33,118.6 1045.93,425 1113.1297685239304,453 C 1180.33,481 1268.76,298 1281.1297685239304,272 C 1293.5,246 1196.23,312.8 1175,323" stroke="rgba(51, 121, 194, 0.58)" stroke-width="2"></path><path d="M -320.18934336623954,314 C -286.59,305.4 -219.39,241 -152.18934336623957,271 C -84.99,301 -51.39,488.6 15.81065663376043,464 C 83.01,439.4 116.61,145.6 183.81065663376043,148 C 251.01,150.4 284.61,500.6 351.81065663376046,476 C 419.01,451.4 452.61,47.8 519.8106566337605,25 C 587.01,2.2 620.61,323 687.8106566337605,362 C 755.01,401 788.61,219.6 855.8106566337605,220 C 923.01,220.4 959.97,354 1023.8106566337605,364 C 1087.65,374 1144.76,288.8 1175,270" stroke="rgba(51, 121, 194, 0.58)" stroke-width="2"></path><path d="M -10.042874361175336,329 C 23.56,287.4 90.76,113.8 157.95712563882466,121 C 225.16,128.2 258.76,362.8 325.95712563882466,365 C 393.16,367.2 426.76,144.6 493.95712563882466,132 C 561.16,119.4 594.76,299.8 661.9571256388247,302 C 729.16,304.2 762.76,106 829.9571256388247,143 C 897.16,180 930.76,503 997.9571256388247,487 C 1065.16,471 1098.76,70.6 1165.9571256388247,63 C 1233.16,55.4 1332.15,415.8 1333.9571256388247,449 C 1335.77,482.2 1206.79,273 1175,229" stroke="rgba(51, 121, 194, 0.58)" stroke-width="2"></path><path d="M -316.0345547407014,135 C -282.43,195.6 -215.23,417.4 -148.03455474070145,438 C -80.83,458.6 -47.23,234.2 19.965445259298548,238 C 87.17,241.8 120.77,479.2 187.96544525929855,457 C 255.17,434.8 288.77,137.8 355.9654452592986,127 C 423.17,116.2 456.77,388 523.9654452592986,403 C 591.17,418 624.77,213 691.9654452592986,202 C 759.17,191 792.77,353.4 859.9654452592986,348 C 927.17,342.6 964.96,159.8 1027.9654452592986,175 C 1090.97,190.2 1145.59,374.2 1175,424" stroke="rgba(51, 121, 194, 0.58)" stroke-width="2"></path><path d="M -169.66432724033322,417 C -136.06,385.4 -68.86,252.8 -1.6643272403332343,259 C 65.54,265.2 99.14,471.2 166.33567275966678,448 C 233.54,424.8 267.14,134 334.33567275966675,143 C 401.54,152 435.14,484.8 502.33567275966675,493 C 569.54,501.2 603.14,189.4 670.3356727596667,184 C 737.54,178.6 771.14,475 838.3356727596667,466 C 905.54,457 939.14,171.6 1006.3356727596667,139 C 1073.54,106.4 1140.6,306.2 1174.3356727596667,303 C 1208.07,299.8 1174.87,159 1175,123" stroke="rgba(51, 121, 194, 0.58)" stroke-width="2"></path><path d="M -149.05732413210796,341 C -115.46,302 -48.26,136.6 18.94267586789205,146 C 86.14,155.4 119.74,363.2 186.94267586789204,388 C 254.14,412.8 287.74,285.2 354.94267586789204,270 C 422.14,254.8 455.74,325.2 522.942675867892,312 C 590.14,298.8 623.74,195.6 690.942675867892,204 C 758.14,212.4 791.74,360 858.942675867892,354 C 926.14,348 959.74,184.2 1026.9426758678921,174 C 1094.14,163.8 1165.33,307 1194.9426758678921,303 C 1224.55,299 1178.99,183.8 1175,154" stroke="rgba(51, 121, 194, 0.58)" stroke-width="2"></path></g><defs><mask id="SvgjsMask1396"><rect width="1175" height="560" fill="#ffffff"></rect></mask></defs></svg>